<svg xmlns="http://www.w3.org/2000/svg" version="1.1" width="400" height="400">
<circle cx="200" cy="200" r="200" fill="#050505"/><path d="M0 0 C4.80647097 -0.15258638 7.6248267 -0.17448466 11.35546875 3.01171875 C13.66614733 5.60874649 15.84884685 8.26969023 18 11 C24.14077162 18.49162862 24.14077162 18.49162862 32 24 C38.84381275 24.5551923 44.68349778 24.13674859 51.08984375 21.671875 C53.47207707 20.83395244 55.49867541 20.68733443 58 21 C59 22 59 22 59.0625 25 C57.53241062 34.0514926 47.49455802 40.54198287 40.5078125 45.6328125 C32.17334896 51.42805219 23.98758056 54.78053765 14 57 C14 68.22 14 79.44 14 91 C20.64470676 91.24965365 20.64470676 91.24965365 27.28955078 91.49560547 C32.57598923 91.72674211 37.66169396 92.20055508 42.86645508 93.14208984 C48.9231803 94.31985225 48.9231803 94.31985225 54.65234375 92.640625 C56.66723834 90.87713679 58.30154451 89.06144993 60 87 C63.22791555 84.8480563 64.28400809 84.79913557 68 85 C68.44257795 90.24770993 67.20923391 93.04018418 64.5 97.5 C63.75752107 98.74461786 63.01534157 99.98941439 62.2734375 101.234375 C61.8928418 101.86279297 61.51224609 102.49121094 61.12011719 103.13867188 C59.40861897 105.98271337 57.76816836 108.86607185 56.125 111.75 C55.14853516 113.45349609 55.14853516 113.45349609 54.15234375 115.19140625 C52.53305562 118.03833007 50.95064646 120.90390806 49.37890625 123.77734375 C48.93208496 124.59170898 48.48526367 125.40607422 48.02490234 126.24511719 C47.14962208 127.84356621 46.2786751 129.44439758 45.41259766 131.04785156 C45.01218262 131.77842773 44.61176758 132.50900391 44.19921875 133.26171875 C43.84690186 133.91100342 43.49458496 134.56028809 43.1315918 135.22924805 C41.91997217 137.12523018 40.72606055 138.55535329 39 140 C36.578125 140.01171875 36.578125 140.01171875 34 139 C31.859375 136.70703125 31.859375 136.70703125 29.75 133.8125 C25.25204315 128.01864939 20.52725455 124.26362727 14 121 C14.01252808 121.89946854 14.02505615 122.79893707 14.03796387 123.72566223 C14.15810225 132.38253837 14.27583784 141.03944359 14.39115143 149.69638538 C14.4504515 154.14241619 14.51054662 158.58843267 14.57275391 163.03442383 C14.90303062 186.69119156 15.07335066 210.3408855 15 234 C43.80574152 214.98559167 55.4011085 182.16397165 63 150 C65.31 150 67.62 150 70 150 C74.97642474 169.36083495 61.02583168 194.67160638 51.94482422 210.88378906 C39.86966467 231.27979846 21.97177909 247.14696646 -1 254 C-8.72143244 255.81063393 -16.2103674 256.35506174 -24.125 256.3125 C-25.2173999 256.30758545 -26.3097998 256.3026709 -27.43530273 256.29760742 C-55.26528083 255.89836916 -83.72089303 246.52049528 -103.56103516 226.51660156 C-116.42775579 212.95568053 -123.93834089 196.82719903 -129 179 C-129.268125 178.06027344 -129.53625 177.12054688 -129.8125 176.15234375 C-136.33189852 147.58470164 -125.81867991 117.21868373 -111 93 C-103.1386865 80.60446825 -94.13635715 69.30050013 -84.2421875 58.46484375 C-82.7515678 56.82620083 -81.27736542 55.17246685 -79.8203125 53.50390625 C-61.55793517 32.67439759 -61.55793517 32.67439759 -52.796875 31.7734375 C-50.86321446 31.75315435 -48.92902292 31.86462997 -47 32 C-45.68549297 36.40971255 -45.68549297 36.40971255 -47.046875 38.96484375 C-47.60890625 39.61582031 -48.1709375 40.26679687 -48.75 40.9375 C-49.38550781 41.700625 -50.02101563 42.46375 -50.67578125 43.25 C-51.44277344 44.1575 -52.20976562 45.065 -53 46 C-54.99789784 48.46446453 -56.96840504 50.95000415 -58.9375 53.4375 C-59.43411133 54.05294678 -59.93072266 54.66839355 -60.44238281 55.30249023 C-63.11116752 58.28444505 -63.11116752 58.28444505 -64 62 C-35.74773303 47.81620883 -17.96971213 25.20930838 0 0 Z M-13 49 C-13.65531164 52.93186981 -14.12556843 56.03612324 -14.12939453 59.90039062 C-14.13254669 60.82154663 -14.13569885 61.74270264 -14.13894653 62.69177246 C-14.1369223 63.67005005 -14.13489807 64.64832764 -14.1328125 65.65625 C-14.13376923 66.67674438 -14.13472595 67.69723877 -14.13571167 68.74865723 C-14.13639036 70.90030987 -14.13455781 73.0519646 -14.13037109 75.20361328 C-14.12501849 78.48865375 -14.13032667 81.77355751 -14.13671875 85.05859375 C-14.13605791 87.15364613 -14.13477664 89.24869843 -14.1328125 91.34375 C-14.13483673 92.32202759 -14.13686096 93.30030518 -14.13894653 94.30822754 C-14.12293869 98.98619942 -13.96925603 103.39916206 -13 108 C-7.43230006 105.30166078 -2.23821115 102.5978222 2 98 C3.48428708 93.26410233 3.36242304 88.80326656 3.1875 83.875 C3.18556641 82.64523438 3.18363281 81.41546875 3.18164062 80.1484375 C3.17256719 77.6804639 3.14006251 75.21245913 3.08349609 72.74511719 C2.95160983 66.82951692 2.9885769 60.91716349 3 55 C-2.28 53.02 -7.56 51.04 -13 49 Z M-68.9375 74.1875 C-69.94103516 74.51814453 -69.94103516 74.51814453 -70.96484375 74.85546875 C-75.18970212 77.23144476 -77.0495646 80.64503102 -78.4140625 85.15234375 C-78.83077619 86.74403179 -79.23412183 88.33927118 -79.625 89.9375 C-79.82867187 90.70384766 -80.03234375 91.47019531 -80.2421875 92.25976562 C-83.65473179 105.658377 -84.4051527 118.93920714 -84.375 132.6875 C-84.37512085 133.53739502 -84.3752417 134.38729004 -84.37536621 135.26293945 C-84.34476194 150.45831372 -83.10787256 165.08876608 -80 180 C-79.83983398 180.77150391 -79.67966797 181.54300781 -79.51464844 182.33789062 C-76.96651164 194.05607388 -72.95213774 206.15613255 -66 216 C-63.0280615 214.87548273 -60.66559313 213.77706209 -58 212 C-57.57492997 209.67531143 -57.57492997 209.67531143 -57.69165039 206.93774414 C-57.69901718 205.87873398 -57.70638397 204.81972382 -57.713974 203.72862244 C-57.74920921 201.99316917 -57.74920921 201.99316917 -57.78515625 200.22265625 C-57.79797134 199.01762955 -57.81078644 197.81260284 -57.82398987 196.57106018 C-57.86850596 192.71370935 -57.93387456 188.85703462 -58 185 C-58.03109668 182.56756199 -58.06090528 180.13510713 -58.08935547 177.70263672 C-58.18172146 170.28047697 -58.30661798 162.85906767 -58.4375 155.4375 C-58.45989746 154.13414703 -58.48229492 152.83079407 -58.50537109 151.48794556 C-58.77179196 136.05289511 -59.05584616 120.61858856 -59.5 105.1875 C-59.53536865 103.92413818 -59.5707373 102.66077637 -59.60717773 101.35913086 C-59.51711781 86.97164378 -59.51711781 86.97164378 -62 73 C-64.77562287 73 -66.36691117 73.29445474 -68.9375 74.1875 Z M-6.6875 122.75 C-7.83798828 123.54664063 -7.83798828 123.54664063 -9.01171875 124.359375 C-11.48905825 126.40354512 -12.8464434 128.10560847 -13.39648438 131.30932617 C-14.03120415 140.30616472 -14.29320777 149.2977117 -14.5 158.3125 C-15.36969781 195.9574102 -15.36969781 195.9574102 -23.96484375 205.08203125 C-33.40047825 213.97434706 -45.76555704 219.70989027 -57 226 C-54.66516617 228.43700076 -52.49839823 230.50560886 -49.56640625 232.18359375 C-48.92445313 232.55170166 -48.2825 232.91980957 -47.62109375 233.29907227 C-32.66181369 241.57173865 -19.26538014 247.50218415 -2.0625 242.5625 C0.71860936 241.68121102 0.71860936 241.68121102 3 240 C3.09584998 238.45646869 3.1218807 236.90854892 3.12025452 235.36204529 C3.12162918 234.35938629 3.12300385 233.35672729 3.12442017 232.32368469 C3.12082489 231.21454208 3.11722961 230.10539948 3.11352539 228.96264648 C3.11367142 227.80182556 3.11381744 226.64100464 3.1139679 225.44500732 C3.11326817 221.58701748 3.10547298 217.72907522 3.09765625 213.87109375 C3.09579228 211.20451272 3.09431912 208.53793436 3.09336853 205.87135315 C3.09025548 199.5567112 3.08204244 193.24208649 3.07201904 186.92745215 C3.0608571 179.74014367 3.05534725 172.55283439 3.05032361 165.3655194 C3.0398598 150.57700411 3.02226086 135.78850235 3 121 C-1.4102365 119.93190658 -2.94160209 120.07890132 -6.6875 122.75 Z " fill="#FAFAFA" transform="translate(223,69)"/>


</svg>
<circle xmlns="http://www.w3.org/2000/svg" cx="200" cy="200" r="200" fill="#050505"/>
<path xmlns="http://www.w3.org/2000/svg" d="M0 0 C4.80647097 -0.15258638 7.6248267 -0.17448466 11.35546875 3.01171875 C13.66614733 5.60874649 15.84884685 8.26969023 18 11 C24.14077162 18.49162862 24.14077162 18.49162862 32 24 C38.84381275 24.5551923 44.68349778 24.13674859 51.08984375 21.671875 C53.47207707 20.83395244 55.49867541 20.68733443 58 21 C59 22 59 22 59.0625 25 C57.53241062 34.0514926 47.49455802 40.54198287 40.5078125 45.6328125 C32.17334896 51.42805219 23.98758056 54.78053765 14 57 C14 68.22 14 79.44 14 91 C20.64470676 91.24965365 20.64470676 91.24965365 27.28955078 91.49560547 C32.57598923 91.72674211 37.66169396 92.20055508 42.86645508 93.14208984 C48.9231803 94.31985225 48.9231803 94.31985225 54.65234375 92.640625 C56.66723834 90.87713679 58.30154451 89.06144993 60 87 C63.22791555 84.8480563 64.28400809 84.79913557 68 85 C68.44257795 90.24770993 67.20923391 93.04018418 64.5 97.5 C63.75752107 98.74461786 63.01534157 99.98941439 62.2734375 101.234375 C61.8928418 101.86279297 61.51224609 102.49121094 61.12011719 103.13867188 C59.40861897 105.98271337 57.76816836 108.86607185 56.125 111.75 C55.14853516 113.45349609 55.14853516 113.45349609 54.15234375 115.19140625 C52.53305562 118.03833007 50.95064646 120.90390806 49.37890625 123.77734375 C48.93208496 124.59170898 48.48526367 125.40607422 48.02490234 126.24511719 C47.14962208 127.84356621 46.2786751 129.44439758 45.41259766 131.04785156 C45.01218262 131.77842773 44.61176758 132.50900391 44.19921875 133.26171875 C43.84690186 133.91100342 43.49458496 134.56028809 43.1315918 135.22924805 C41.91997217 137.12523018 40.72606055 138.55535329 39 140 C36.578125 140.01171875 36.578125 140.01171875 34 139 C31.859375 136.70703125 31.859375 136.70703125 29.75 133.8125 C25.25204315 128.01864939 20.52725455 124.26362727 14 121 C14.01252808 121.89946854 14.02505615 122.79893707 14.03796387 123.72566223 C14.15810225 132.38253837 14.27583784 141.03944359 14.39115143 149.69638538 C14.4504515 154.14241619 14.51054662 158.58843267 14.57275391 163.03442383 C14.90303062 186.69119156 15.07335066 210.3408855 15 234 C43.80574152 214.98559167 55.4011085 182.16397165 63 150 C65.31 150 67.62 150 70 150 C74.97642474 169.36083495 61.02583168 194.67160638 51.94482422 210.88378906 C39.86966467 231.27979846 21.97177909 247.14696646 -1 254 C-8.72143244 255.81063393 -16.2103674 256.35506174 -24.125 256.3125 C-25.2173999 256.30758545 -26.3097998 256.3026709 -27.43530273 256.29760742 C-55.26528083 255.89836916 -83.72089303 246.52049528 -103.56103516 226.51660156 C-116.42775579 212.95568053 -123.93834089 196.82719903 -129 179 C-129.268125 178.06027344 -129.53625 177.12054688 -129.8125 176.15234375 C-136.33189852 147.58470164 -125.81867991 117.21868373 -111 93 C-103.1386865 80.60446825 -94.13635715 69.30050013 -84.2421875 58.46484375 C-82.7515678 56.82620083 -81.27736542 55.17246685 -79.8203125 53.50390625 C-61.55793517 32.67439759 -61.55793517 32.67439759 -52.796875 31.7734375 C-50.86321446 31.75315435 -48.92902292 31.86462997 -47 32 C-45.68549297 36.40971255 -45.68549297 36.40971255 -47.046875 38.96484375 C-47.60890625 39.61582031 -48.1709375 40.26679687 -48.75 40.9375 C-49.38550781 41.700625 -50.02101563 42.46375 -50.67578125 43.25 C-51.44277344 44.1575 -52.20976562 45.065 -53 46 C-54.99789784 48.46446453 -56.96840504 50.95000415 -58.9375 53.4375 C-59.43411133 54.05294678 -59.93072266 54.66839355 -60.44238281 55.30249023 C-63.11116752 58.28444505 -63.11116752 58.28444505 -64 62 C-35.74773303 47.81620883 -17.96971213 25.20930838 0 0 Z M-13 49 C-13.65531164 52.93186981 -14.12556843 56.03612324 -14.12939453 59.90039062 C-14.13254669 60.82154663 -14.13569885 61.74270264 -14.13894653 62.69177246 C-14.1369223 63.67005005 -14.13489807 64.64832764 -14.1328125 65.65625 C-14.13376923 66.67674438 -14.13472595 67.69723877 -14.13571167 68.74865723 C-14.13639036 70.90030987 -14.13455781 73.0519646 -14.13037109 75.20361328 C-14.12501849 78.48865375 -14.13032667 81.77355751 -14.13671875 85.05859375 C-14.13605791 87.15364613 -14.13477664 89.24869843 -14.1328125 91.34375 C-14.13483673 92.32202759 -14.13686096 93.30030518 -14.13894653 94.30822754 C-14.12293869 98.98619942 -13.96925603 103.39916206 -13 108 C-7.43230006 105.30166078 -2.23821115 102.5978222 2 98 C3.48428708 93.26410233 3.36242304 88.80326656 3.1875 83.875 C3.18556641 82.64523438 3.18363281 81.41546875 3.18164062 80.1484375 C3.17256719 77.6804639 3.14006251 75.21245913 3.08349609 72.74511719 C2.95160983 66.82951692 2.9885769 60.91716349 3 55 C-2.28 53.02 -7.56 51.04 -13 49 Z M-68.9375 74.1875 C-69.94103516 74.51814453 -69.94103516 74.51814453 -70.96484375 74.85546875 C-75.18970212 77.23144476 -77.0495646 80.64503102 -78.4140625 85.15234375 C-78.83077619 86.74403179 -79.23412183 88.33927118 -79.625 89.9375 C-79.82867187 90.70384766 -80.03234375 91.47019531 -80.2421875 92.25976562 C-83.65473179 105.658377 -84.4051527 118.93920714 -84.375 132.6875 C-84.37512085 133.53739502 -84.3752417 134.38729004 -84.37536621 135.26293945 C-84.34476194 150.45831372 -83.10787256 165.08876608 -80 180 C-79.83983398 180.77150391 -79.67966797 181.54300781 -79.51464844 182.33789062 C-76.96651164 194.05607388 -72.95213774 206.15613255 -66 216 C-63.0280615 214.87548273 -60.66559313 213.77706209 -58 212 C-57.57492997 209.67531143 -57.57492997 209.67531143 -57.69165039 206.93774414 C-57.69901718 205.87873398 -57.70638397 204.81972382 -57.713974 203.72862244 C-57.74920921 201.99316917 -57.74920921 201.99316917 -57.78515625 200.22265625 C-57.79797134 199.01762955 -57.81078644 197.81260284 -57.82398987 196.57106018 C-57.86850596 192.71370935 -57.93387456 188.85703462 -58 185 C-58.03109668 182.56756199 -58.06090528 180.13510713 -58.08935547 177.70263672 C-58.18172146 170.28047697 -58.30661798 162.85906767 -58.4375 155.4375 C-58.45989746 154.13414703 -58.48229492 152.83079407 -58.50537109 151.48794556 C-58.77179196 136.05289511 -59.05584616 120.61858856 -59.5 105.1875 C-59.53536865 103.92413818 -59.5707373 102.66077637 -59.60717773 101.35913086 C-59.51711781 86.97164378 -59.51711781 86.97164378 -62 73 C-64.77562287 73 -66.36691117 73.29445474 -68.9375 74.1875 Z M-6.6875 122.75 C-7.83798828 123.54664063 -7.83798828 123.54664063 -9.01171875 124.359375 C-11.48905825 126.40354512 -12.8464434 128.10560847 -13.39648438 131.30932617 C-14.03120415 140.30616472 -14.29320777 149.2977117 -14.5 158.3125 C-15.36969781 195.9574102 -15.36969781 195.9574102 -23.96484375 205.08203125 C-33.40047825 213.97434706 -45.76555704 219.70989027 -57 226 C-54.66516617 228.43700076 -52.49839823 230.50560886 -49.56640625 232.18359375 C-48.92445313 232.55170166 -48.2825 232.91980957 -47.62109375 233.29907227 C-32.66181369 241.57173865 -19.26538014 247.50218415 -2.0625 242.5625 C0.71860936 241.68121102 0.71860936 241.68121102 3 240 C3.09584998 238.45646869 3.1218807 236.90854892 3.12025452 235.36204529 C3.12162918 234.35938629 3.12300385 233.35672729 3.12442017 232.32368469 C3.12082489 231.21454208 3.11722961 230.10539948 3.11352539 228.96264648 C3.11367142 227.80182556 3.11381744 226.64100464 3.1139679 225.44500732 C3.11326817 221.58701748 3.10547298 217.72907522 3.09765625 213.87109375 C3.09579228 211.20451272 3.09431912 208.53793436 3.09336853 205.87135315 C3.09025548 199.5567112 3.08204244 193.24208649 3.07201904 186.92745215 C3.0608571 179.74014367 3.05534725 172.55283439 3.05032361 165.3655194 C3.0398598 150.57700411 3.02226086 135.78850235 3 121 C-1.4102365 119.93190658 -2.94160209 120.07890132 -6.6875 122.75 Z " fill="#FAFAFA" transform="translate(223,69)"/>
<svg xmlns="http://www.w3.org/2000/svg" version="1.1" width="400" height="400">
<circle cx="200" cy="200" r="200" fill="#050505"/><path d="M0 0 C4.80647097 -0.15258638 7.6248267 -0.17448466 11.35546875 3.01171875 C13.66614733 5.60874649 15.84884685 8.26969023 18 11 C24.14077162 18.49162862 24.14077162 18.49162862 32 24 C38.84381275 24.5551923 44.68349778 24.13674859 51.08984375 21.671875 C53.47207707 20.83395244 55.49867541 20.68733443 58 21 C59 22 59 22 59.0625 25 C57.53241062 34.0514926 47.49455802 40.54198287 40.5078125 45.6328125 C32.17334896 51.42805219 23.98758056 54.78053765 14 57 C14 68.22 14 79.44 14 91 C20.64470676 91.24965365 20.64470676 91.24965365 27.28955078 91.49560547 C32.57598923 91.72674211 37.66169396 92.20055508 42.86645508 93.14208984 C48.9231803 94.31985225 48.9231803 94.31985225 54.65234375 92.640625 C56.66723834 90.87713679 58.30154451 89.06144993 60 87 C63.22791555 84.8480563 64.28400809 84.79913557 68 85 C68.44257795 90.24770993 67.20923391 93.04018418 64.5 97.5 C63.75752107 98.74461786 63.01534157 99.98941439 62.2734375 101.234375 C61.8928418 101.86279297 61.51224609 102.49121094 61.12011719 103.13867188 C59.40861897 105.98271337 57.76816836 108.86607185 56.125 111.75 C55.14853516 113.45349609 55.14853516 113.45349609 54.15234375 115.19140625 C52.53305562 118.03833007 50.95064646 120.90390806 49.37890625 123.77734375 C48.93208496 124.59170898 48.48526367 125.40607422 48.02490234 126.24511719 C47.14962208 127.84356621 46.2786751 129.44439758 45.41259766 131.04785156 C45.01218262 131.77842773 44.61176758 132.50900391 44.19921875 133.26171875 C43.84690186 133.91100342 43.49458496 134.56028809 43.1315918 135.22924805 C41.91997217 137.12523018 40.72606055 138.55535329 39 140 C36.578125 140.01171875 36.578125 140.01171875 34 139 C31.859375 136.70703125 31.859375 136.70703125 29.75 133.8125 C25.25204315 128.01864939 20.52725455 124.26362727 14 121 C14.01252808 121.89946854 14.02505615 122.79893707 14.03796387 123.72566223 C14.15810225 132.38253837 14.27583784 141.03944359 14.39115143 149.69638538 C14.4504515 154.14241619 14.51054662 158.58843267 14.57275391 163.03442383 C14.90303062 186.69119156 15.07335066 210.3408855 15 234 C43.80574152 214.98559167 55.4011085 182.16397165 63 150 C65.31 150 67.62 150 70 150 C74.97642474 169.36083495 61.02583168 194.67160638 51.94482422 210.88378906 C39.86966467 231.27979846 21.97177909 247.14696646 -1 254 C-8.72143244 255.81063393 -16.2103674 256.35506174 -24.125 256.3125 C-25.2173999 256.30758545 -26.3097998 256.3026709 -27.43530273 256.29760742 C-55.26528083 255.89836916 -83.72089303 246.52049528 -103.56103516 226.51660156 C-116.42775579 212.95568053 -123.93834089 196.82719903 -129 179 C-129.268125 178.06027344 -129.53625 177.12054688 -129.8125 176.15234375 C-136.33189852 147.58470164 -125.81867991 117.21868373 -111 93 C-103.1386865 80.60446825 -94.13635715 69.30050013 -84.2421875 58.46484375 C-82.7515678 56.82620083 -81.27736542 55.17246685 -79.8203125 53.50390625 C-61.55793517 32.67439759 -61.55793517 32.67439759 -52.796875 31.7734375 C-50.86321446 31.75315435 -48.92902292 31.86462997 -47 32 C-45.68549297 36.40971255 -45.68549297 36.40971255 -47.046875 38.96484375 C-47.60890625 39.61582031 -48.1709375 40.26679687 -48.75 40.9375 C-49.38550781 41.700625 -50.02101563 42.46375 -50.67578125 43.25 C-51.44277344 44.1575 -52.20976562 45.065 -53 46 C-54.99789784 48.46446453 -56.96840504 50.95000415 -58.9375 53.4375 C-59.43411133 54.05294678 -59.93072266 54.66839355 -60.44238281 55.30249023 C-63.11116752 58.28444505 -63.11116752 58.28444505 -64 62 C-35.74773303 47.81620883 -17.96971213 25.20930838 0 0 Z M-13 49 C-13.65531164 52.93186981 -14.12556843 56.03612324 -14.12939453 59.90039062 C-14.13254669 60.82154663 -14.13569885 61.74270264 -14.13894653 62.69177246 C-14.1369223 63.67005005 -14.13489807 64.64832764 -14.1328125 65.65625 C-14.13376923 66.67674438 -14.13472595 67.69723877 -14.13571167 68.74865723 C-14.13639036 70.90030987 -14.13455781 73.0519646 -14.13037109 75.20361328 C-14.12501849 78.48865375 -14.13032667 81.77355751 -14.13671875 85.05859375 C-14.13605791 87.15364613 -14.13477664 89.24869843 -14.1328125 91.34375 C-14.13483673 92.32202759 -14.13686096 93.30030518 -14.13894653 94.30822754 C-14.12293869 98.98619942 -13.96925603 103.39916206 -13 108 C-7.43230006 105.30166078 -2.23821115 102.5978222 2 98 C3.48428708 93.26410233 3.36242304 88.80326656 3.1875 83.875 C3.18556641 82.64523438 3.18363281 81.41546875 3.18164062 80.1484375 C3.17256719 77.6804639 3.14006251 75.21245913 3.08349609 72.74511719 C2.95160983 66.82951692 2.9885769 60.91716349 3 55 C-2.28 53.02 -7.56 51.04 -13 49 Z M-68.9375 74.1875 C-69.94103516 74.51814453 -69.94103516 74.51814453 -70.96484375 74.85546875 C-75.18970212 77.23144476 -77.0495646 80.64503102 -78.4140625 85.15234375 C-78.83077619 86.74403179 -79.23412183 88.33927118 -79.625 89.9375 C-79.82867187 90.70384766 -80.03234375 91.47019531 -80.2421875 92.25976562 C-83.65473179 105.658377 -84.4051527 118.93920714 -84.375 132.6875 C-84.37512085 133.53739502 -84.3752417 134.38729004 -84.37536621 135.26293945 C-84.34476194 150.45831372 -83.10787256 165.08876608 -80 180 C-79.83983398 180.77150391 -79.67966797 181.54300781 -79.51464844 182.33789062 C-76.96651164 194.05607388 -72.95213774 206.15613255 -66 216 C-63.0280615 214.87548273 -60.66559313 213.77706209 -58 212 C-57.57492997 209.67531143 -57.57492997 209.67531143 -57.69165039 206.93774414 C-57.69901718 205.87873398 -57.70638397 204.81972382 -57.713974 203.72862244 C-57.74920921 201.99316917 -57.74920921 201.99316917 -57.78515625 200.22265625 C-57.79797134 199.01762955 -57.81078644 197.81260284 -57.82398987 196.57106018 C-57.86850596 192.71370935 -57.93387456 188.85703462 -58 185 C-58.03109668 182.56756199 -58.06090528 180.13510713 -58.08935547 177.70263672 C-58.18172146 170.28047697 -58.30661798 162.85906767 -58.4375 155.4375 C-58.45989746 154.13414703 -58.48229492 152.83079407 -58.50537109 151.48794556 C-58.77179196 136.05289511 -59.05584616 120.61858856 -59.5 105.1875 C-59.53536865 103.92413818 -59.5707373 102.66077637 -59.60717773 101.35913086 C-59.51711781 86.97164378 -59.51711781 86.97164378 -62 73 C-64.77562287 73 -66.36691117 73.29445474 -68.9375 74.1875 Z M-6.6875 122.75 C-7.83798828 123.54664063 -7.83798828 123.54664063 -9.01171875 124.359375 C-11.48905825 126.40354512 -12.8464434 128.10560847 -13.39648438 131.30932617 C-14.03120415 140.30616472 -14.29320777 149.2977117 -14.5 158.3125 C-15.36969781 195.9574102 -15.36969781 195.9574102 -23.96484375 205.08203125 C-33.40047825 213.97434706 -45.76555704 219.70989027 -57 226 C-54.66516617 228.43700076 -52.49839823 230.50560886 -49.56640625 232.18359375 C-48.92445313 232.55170166 -48.2825 232.91980957 -47.62109375 233.29907227 C-32.66181369 241.57173865 -19.26538014 247.50218415 -2.0625 242.5625 C0.71860936 241.68121102 0.71860936 241.68121102 3 240 C3.09584998 238.45646869 3.1218807 236.90854892 3.12025452 235.36204529 C3.12162918 234.35938629 3.12300385 233.35672729 3.12442017 232.32368469 C3.12082489 231.21454208 3.11722961 230.10539948 3.11352539 228.96264648 C3.11367142 227.80182556 3.11381744 226.64100464 3.1139679 225.44500732 C3.11326817 221.58701748 3.10547298 217.72907522 3.09765625 213.87109375 C3.09579228 211.20451272 3.09431912 208.53793436 3.09336853 205.87135315 C3.09025548 199.5567112 3.08204244 193.24208649 3.07201904 186.92745215 C3.0608571 179.74014367 3.05534725 172.55283439 3.05032361 165.3655194 C3.0398598 150.57700411 3.02226086 135.78850235 3 121 C-1.4102365 119.93190658 -2.94160209 120.07890132 -6.6875 122.75 Z " fill="#FAFAFA" transform="translate(223,69)"/>


</svg>